<svg version="1" xmlns="http://www.w3.org/2000/svg" width="868" height="868" viewBox="0 0 651.000000 651.000000"><path d="M163.5 106.1C74.9 152.3 2.1 190.5 1.7 190.9c-.9.9 12 26.1 13.3 26.1.5 0 70.3-36.2 155.1-80.5S324.9 56 325.6 56c1 0 252 130.5 302 157l9 4.8 6.8-13c4.2-7.9 6.5-13.3 5.9-13.9C648 189.6 326.7 22 325.5 22c-.5 0-73.4 37.9-162 84.1zM396.5 236.7c-1.5 1.6-5.2 6-8.1 9.9-6.2 8.4-15.6 16.9-23.9 21.7C346 278.9 339 283.7 334 289c-4.1 4.4-6.4 6-9.2 6.5-11.4 2.1-19.8-4.7-27-21.9-1.7-3.9-3.3-7.4-3.7-7.8-.3-.4-.7 6.2-.8 14.5-.1 11-.7 18-2.2 25.4-1.5 7-2.1 13.8-2.1 22.4 0 20.3-4.8 41.8-9.4 42.3-2.4.3-28.8-47-32-57.2-.6-1.9-1.2-2.1-4.5-1.6-2.8.4-4.9 0-7.8-1.5-5.9-3-18.1-16.7-27.9-31.3-4.6-7-8.8-13-9.3-13.2-.5-.3-.1 2 .9 5.2s2.3 11 3 17.3c1.1 12.1.8 17.7-2.9 43-2 13.1-1.9 15.2.6 17.7 1.6 1.7.8 3.2-1.7 3.2-1.2 0-3 1.6-4.6 3.9-4.8 7.3-10.6 8.5-23.4 5-4.1-1.1-8.8-2.3-10.5-2.5l-3-.5 3 2.3c1.6 1.3 5.8 5 9.3 8.3 5.6 5.2 7.2 7.8 13.8 21.1 5.2 10.5 9.3 20.7 13.4 33.5 3.2 10.1 5.6 18.6 5.4 18.8-.2.3-1.7-.5-3.2-1.7-6.8-5.5-5.7-5.3-31.9-6.2-24.5-.8-30.2-1.6-39.4-5.4-1.9-.7-4.7-1.7-6.4-2-2.8-.7-2.6-.4 2.5 4.3 3 2.8 9.8 7.8 15.2 11.1 10.4 6.6 15.8 11.7 21.4 20.7 7.3 11.7 8.9 13.5 18.3 21 5.3 4.3 11.7 9.7 14.3 12 2.6 2.4 5.2 4.3 5.8 4.3 1.7 0 1.1 6.2-1.1 11-2.2 5-10.5 14-12.8 14-1 0-1.2.3-.5 1 .5.5 9.7 1.4 20.4 2 10.7.5 25.8 1.7 33.5 2.5 34.7 3.7 36.3 3.8 39 2.1 1.7-1.1 4.7-1.6 10-1.6 7.1 0 7.5.1 7.5 2.2 0 1.3-.7 10.4-1.5 20.3-.8 10.1-1.5 30.9-1.5 47.2 0 25.4.2 29.3 1.5 29.3 1.2 0 1.5-1.5 1.6-7.3.2-33.6 3.2-80.3 5.5-86.6.6-1.9 9.8 7 12.4 12 1 1.9 2.6 4.2 3.5 4.9.9.8 2.9 3.9 4.5 6.9 5 10 12.7 17.8 23.4 24 2.2 1.2 8 5.7 12.8 9.9 11.5 9.9 12.2 10.3 10.3 5.8-.8-2-1.5-5.6-1.5-8 0-2.5-.9-8.4-2-13.1-1.1-4.8-1.8-9.1-1.5-9.6 1-1.5 17.9-1 26.1.7 4.2.8 13.8 3.5 21.4 6 7.6 2.4 14 4.4 14.4 4.4.4 0-.1-1.4-.9-3.1-2.9-5.6-1.7-6.4 17.9-12.4 18.6-5.7 25-6.6 44.6-6.6 9.6 0 19.3-.4 21.5-.8l4-.7-8.5-2.3c-4.7-1.2-10.3-2.9-12.4-3.7-5.6-2.2-15.7-9-26.1-17.8-4.9-4.1-13.9-10.3-19.8-13.7-12.4-7.1-13.3-8.9-5.7-11.8 2.5-1 11.3-5.6 19.7-10.3 22.4-12.6 36.3-16.5 53.8-15.4l9 .6-13.3-6.6c-14.6-7.2-21.2-12.4-21.2-16.8 0-3.8 2.3-8.7 7.4-15.8 2.4-3.5 6.1-10.6 8.1-15.8 7.6-19.1 16.3-34.6 26-45.9 2.5-2.9 4.3-5.6 4-5.9-.2-.3-4.7 1.6-9.9 4.2-10.5 5.3-13.4 5.9-46.7 9.7-10.7 1.2-20.8 1.9-22.4 1.5-1.5-.4-4-2-5.6-3.6-3.4-3.4-3.8-8.6-1.3-18.2 2.1-8.3 1.1-8.7-3.8-1.2-1.4 2.2-7.3 8.3-13 13.5-5.6 5.1-15.9 15-22.8 22-12.1 12.4-16.8 15.9-20.9 15.9-3 0-3.4-1.7-1.3-5.3 1.1-1.7 4.6-9.7 7.8-17.7 4-10.1 6.9-15.7 9.4-18.5 2-2.2 7.8-9.5 12.9-16.2 5.1-6.8 12.5-15.7 16.4-19.9 5.9-6.3 6.6-7.4 3.9-6-1.7.9-3.2 1.4-3.2 1.2 0-.3-2.1.5-4.7 1.6-6.8 3-19 3.1-23 .2-3.9-2.9-5.2-6.1-5.9-14.5-.6-6.6-.3-8.2 2.1-14.2 1.5-3.7 2.6-6.9 2.4-7-.2-.2-1.6-1.1-3.1-2-1.5-1-3.7-3.6-4.9-5.9-1.9-3.8-2.1-5.3-1.6-20.2.4-14.7.8-17.1 4-28.1 2-6.6 3.5-12.1 3.3-12.2-.2-.2-1.6.9-3.1 2.4zM45 439.5V629h29V250H45v189.5zM577 439.5V629h30V250h-30v189.5z"/></svg>